<?xml version="1.0" standalone="no"?>
<!DOCTYPE svg PUBLIC "-//W3C//DTD SVG 1.1//EN" "http://www.w3.org/Graphics/SVG/1.1/DTD/svg11.dtd" >
<svg xmlns="http://www.w3.org/2000/svg">
<metadata>Generated by IcoMoon</metadata>
<defs>
<font id="icomoon" horiz-adv-x="1024">
<font-face units-per-em="1024" ascent="960" descent="-64" />
<missing-glyph horiz-adv-x="1024" />
<glyph unicode="&#x20;" horiz-adv-x="512" d="" />
<glyph unicode="&#xe900;" glyph-name="svg-02" horiz-adv-x="992" d="M-0.006 959.989h991.703v-1024h-991.703v1024z" />
<glyph unicode="&#xe901;" glyph-name="svg-03" horiz-adv-x="857" d="M48.717 279.853c-8.273 0-15.525-7.59-15.525-16.251 0-8.567 6.964-15.531 15.525-15.531 8.711 0 15.531 6.82 15.531 15.531 0 8.805-7.108 16.251-15.531 16.251zM96.657 82.745h-9.175c-19.257 0-28.401 7.020-28.401 27.242v90.444c0 12.895-8.636 20.090-16.464 20.090h-2.323v-114.486c0-30.499 13.771-45.322 44.508-45.322 8.154 0 11.855 5.004 11.855 13.383v8.649zM233.563 57.575h-26.923c-54.196 0-78.602 31.225-78.602 90.093v39.122c0 46.656 9.688 89.010 34.814 89.010h113.065v-11.843c0-7.54-5.029-15.074-21.18-15.074h-89.73c-4.659-17.592-7.897-43.437-7.897-66.045h94.045v-8.974c0-8.611-5.749-15.788-18.662-15.788h-75.383v-15.788c0-43.788 16.514-58.511 59.588-58.511h16.508c16.151 0 30.511 3.238 40.563 6.106v-8.254c-0.006-15.080-5.029-24.055-40.206-24.055zM365.309 57.939c-32.302 0-49.531 15.437-49.531 48.454v180.181h8.611c11.129 0 19.389-7.177 19.389-21.531v-155.412c0-20.46 10.408-26.203 25.839-26.203h17.949v-9.331c-0.006-11.129-7.546-16.157-22.257-16.157zM477.647 127.929h-40.199c2.511-27.274 21.531-46.305 52.048-46.305 25.125 0 40.199 7.897 49.531 16.871h1.434v-12.206c0-17.228-18.306-30.505-54.917-30.505-44.865 0-76.447 34.814-76.447 81.476 0 52.762 33.016 87.933 76.090 87.933 31.945 0 61.73-24.048 61.73-56.708 0.006-28.714-13.283-40.556-69.27-40.556zM482.312 200.431c-27.274 0-43.788-22.608-44.865-43.788l-0.363-6.82 36.968 0.714c39.122 0.72 45.942 4.309 45.942 16.514 0.006 17.585-12.199 33.38-37.682 33.38zM710.239 177.823c-5.743 12.199-25.839 21.531-41.634 21.531-32.302 0-53.839-23.691-53.839-56.351 0-42.711 29.077-61.016 54.56-61.016 17.585 0 32.659 4.309 40.913 14.36h1.434v-11.849c0-10.408-12.206-28.714-47.376-28.714-34.093 0-77.888 30.148-77.888 82.91 0 46.299 31.582 86.499 80.756 86.499 24.405 0 44.508-12.199 44.508-35.534v-11.843h-1.434zM790.287 221.962h56.351v-9.331c0-10.045-6.82-16.508-21.531-16.508h-34.457v-81.119c0-22.971 9.331-32.659 26.917-32.659 10.051 0 19.74 0.714 25.846 4.309h1.434v-9.694c0-13.64-10.772-21.174-29.791-21.174-36.254 0-52.048 19.019-52.048 56.708v106.245c0 18.306 11.849 36.611 24.048 36.611h3.231v-33.386zM333.689 621.833l94.803 94.772 94.058-94.020-14.517-14.554-79.541 79.541-80.292-80.217zM157.272 688.824l271.22 271.176 271.188-271.176-271.188-271.188-271.22 271.188zM186.355 688.824l242.136-242.142 242.149 242.142-242.149 242.136-242.136-242.136z" />
<glyph unicode="&#xe902;" glyph-name="svg-04" horiz-adv-x="796" d="M787.456 111.976c0 49.797-28.141 95.384-72.742 117.646l-156.596 78.279c-20.29 10.202-33.109 30.834-33.109 53.476v61.402c4.437 5.082 9.481 11.492 14.905 19.077 21.352 30.189 37.471 63.374 48.735 98.19 19.987 6.144 34.816 24.728 34.816 46.725v65.574c0 14.526-6.447 27.42-16.46 36.371v94.891c0 0 19.494 147.57-180.3 147.57-199.908 0-180.376-147.57-180.376-147.57v-94.891c-10.088-8.988-16.422-21.845-16.422-36.371v-65.574c0-17.294 9.026-32.503 22.68-41.225 16.46-71.452 59.316-122.766 59.316-122.766v-59.847c0-21.845-11.909-42.060-31.175-52.452l-146.204-79.834c-42.287-23.021-68.608-67.319-68.608-115.484v-53.058c0-45.284 161.564-81.958 360.827-81.958 199.187 0 360.751 36.674 360.751 81.958v49.873z" />
<glyph unicode="&#xe903;" glyph-name="svg-05" horiz-adv-x="721" d="M618.231 499.541h-425.567v193.46c0 92.425 75.207 167.708 167.595 167.708 92.425 0 167.633-75.283 167.633-167.708v-77.369c0-21.352 17.332-38.722 38.722-38.722s38.684 17.408 38.684 38.722v77.369c0 135.092-109.909 245.077-245.039 245.077-135.092 0-245.001-109.985-245.001-245.077v-193.46h-12.895c-35.612 0-64.436-28.824-64.436-64.474v-412.596c0-35.65 28.824-64.55 64.436-64.55h515.868c35.575 0 64.436 28.9 64.436 64.55v412.596c0 35.65-28.862 64.474-64.436 64.474v0zM282.927 280.367c0 42.667 34.664 77.331 77.369 77.331 42.743 0 77.369-34.664 77.369-77.331 0-28.634-15.512-53.665-38.684-66.977v-113.55h-77.369v113.55c-23.135 13.312-38.684 38.343-38.684 66.977v0z" />
<glyph unicode="&#xe904;" glyph-name="svg-06" horiz-adv-x="3128" d="M118.941 690.22c-24.525 0-45.569 20.148-45.569 45.544 0 25.421 21.018 47.31 45.569 47.31 25.421 0 45.569-21.889 45.569-47.31-0.026-25.37-20.173-45.544-45.569-45.544zM203.039 232.865c-78.876 0-119.171 38.555-119.171 118.275v283.886h20.148c23.655 0 47.31-18.407 47.31-53.454v-220.806c0-49.947 24.525-65.717 62.21-65.717h28.903v-21.889c0.026-25.421-15.744-40.295-39.399-40.295zM570.203 232.865h-65.717c-132.304 0-191.902 76.239-191.902 219.91v95.49c0 113.923 23.655 217.298 84.994 217.298h276.001v-28.903c0-18.407-12.263-36.814-51.713-36.814h-219.039c-11.392-42.932-19.277-106.038-19.277-161.233h229.561v-21.889c0-21.018-14.004-38.555-45.569-38.555h-183.992v-38.555c0-106.908 40.295-142.826 145.437-142.826h40.321c39.425 0 74.472 7.885 98.998 14.9v-20.148c0.026-36.788-12.237-58.677-98.102-58.677zM891.85 233.735c-78.85 0-120.912 37.684-120.912 118.275v439.845h21.044c27.162 0 47.31-17.511 47.31-52.558v-379.401c0-49.947 25.421-63.976 63.080-63.976h43.803v-22.785c0-27.137-18.407-39.399-54.325-39.399zM1166.135 404.594h-98.127c6.119-66.587 52.558-113.027 127.030-113.027 61.339 0 98.127 19.277 120.912 41.166h3.507v-29.799c0-42.062-44.673-74.472-134.045-74.472-109.52 0-186.629 84.994-186.629 198.891 0 128.797 80.616 214.661 185.758 214.661 77.98 0 150.711-58.702 150.711-138.423 0-70.095-32.41-98.998-169.118-98.998zM1177.527 581.571c-66.587 0-106.883-55.195-109.52-106.883l-0.896-16.64 90.242 1.741c95.49 1.741 112.156 10.522 112.156 40.295 0.026 42.932-29.774 81.487-91.983 81.487zM1733.983 526.376c-14.004 29.799-63.080 52.584-101.635 52.584-78.876 0-131.434-57.832-131.434-137.578 0-104.271 70.965-148.945 133.175-148.945 42.932 0 79.72 10.522 99.868 35.047h3.507v-28.903c0-25.421-29.799-70.095-115.664-70.095-83.228 0-190.136 73.602-190.136 202.399 0 113.027 77.109 211.154 197.151 211.154 59.598 0 108.649-29.799 108.649-86.735v-28.903h-3.482zM1929.469 634.155h137.552v-22.785c0-24.525-16.64-40.295-52.558-40.295h-84.124v-198.021c0-56.065 22.785-79.746 65.717-79.746 24.525 0 48.18 1.741 63.080 10.522h3.507v-23.655c0-33.306-26.292-51.713-72.731-51.713-88.501 0-127.056 46.44-127.056 138.448v259.36c0 44.673 28.929 89.372 58.702 89.372h7.885v-81.487zM2602.356 437.184l136.119 136.067 135.018-134.992-20.865-20.89-114.153 114.204-115.28-115.177zM2349.115 533.34l389.36 389.283 389.309-389.283-389.309-389.309-389.36 389.309zM2390.869 533.34l347.605-347.605 347.605 347.605-347.605 347.605-347.605-347.605z" />
<glyph unicode="&#xe905;" glyph-name="svg-07" horiz-adv-x="1117" d="M1033.606 139.873l-181.949 78.713c-4.294 2.204-9.041 7.459-13.053 14.409l121.488 0.057c2.091-0.17 52.155-4.746 92.331 12.544 15.257 6.611 26.445 19.438 31.022 35.486 4.69 16.161 1.808 33.282-7.854 47.013-34.808 49.386-115.724 178.559-118.267 309.483-0.17 2.26-7.515 225.007-227.38 226.815-32.378-0.283-62.326-5.82-89.562-15.935-5.877 15.144-14.692 30.909-27.744 45.826-38.254 43.566-100.241 65.716-184.492 65.716-84.194 0-146.181-22.15-184.435-65.716-44.075-50.29-40.006-111.317-38.876-121.488v-99.055c-11.866-13.561-18.647-30.909-18.647-48.821v-74.475c0-22.659 10.284-43.736 27.914-57.862 17.008-67.525 52.777-118.436 65.208-134.71v-61.591c0-18.025-9.832-34.582-25.654-43.171l-166.071-90.635c-54.020-29.609-87.584-86.058-87.584-147.593v-78.882h1117.065v68.824c0 57.58-32.039 109.226-83.459 135.049v0zM819.166-26.706h-781.929v41.588c0 47.86 26.049 91.822 68.090 114.707l166.071 90.635c27.801 15.2 45.092 44.244 45.092 75.887v74.814l-4.351 5.199c-0.452 0.565-46.052 55.715-63.456 131.546l-1.752 7.402-6.329 4.125c-10.736 7.007-17.178 18.647-17.178 31.135v74.588c0 10.397 4.351 20.173 12.488 27.462l6.046 5.538v115.894l-0.057 2.43c-0.113 0.452-6.498 52.098 29.835 93.461 30.852 35.203 83.516 53.003 156.408 53.003 72.723 0 125.274-17.63 156.182-52.607 15.37-17.347 23.111-36.672 26.953-53.342 0.283-1.3 0.622-2.543 0.791-3.899 0.283-1.3 0.565-2.656 0.848-3.955 0.226-1.413 0.452-2.825 0.622-4.181 0.057-1.017 0.283-2.034 0.339-2.938 0.339-2.373 0.622-4.52 0.678-6.611 0.057-0.17 0.057-0.283 0.057-0.452 0.057-2.034 0.17-3.955 0.283-5.651 0-0.339 0-0.622 0-0.961 0-1.582 0-3.051 0-4.294v-0.509c-0.057-4.407-0.339-7.063-0.339-7.12l-0.17-118.267 6.159-5.651c8.024-7.176 12.431-17.008 12.431-27.349v-74.588c0-16.161-10.623-30.457-26.388-35.316l-9.38-2.825-2.938-9.21c-12.488-38.707-30.287-74.531-52.72-106.344-5.594-7.798-10.906-14.805-15.709-20.060l-4.633-5.255v-76.848c0-4.69 0.509-9.38 1.243-13.957 0.113-0.848 0.396-1.865 0.565-2.769 0.735-3.729 1.752-7.459 2.938-11.019 0.226-0.791 0.509-1.639 0.848-2.43 1.413-3.899 3.108-7.741 5.142-11.245 0.113-0.452 0.396-0.791 0.622-1.3 2.712-4.69 5.82-9.267 9.323-13.448l4.294-5.255h0.791c6.385-6.272 13.731-11.753 22.094-15.935l177.824-88.884c44.64-22.263 72.271-67.129 72.271-116.911v-38.028zM1079.715-26.706h-223.311v37.972c0 64.021-35.655 121.544-92.839 150.193l-127.703 63.908c3.164 7.176 3.503 15.37 0.791 23.337-4.52 13.109-16.443 21.529-30.4 21.529h-41.193c-0.848 1.582-1.356 3.221-2.091 4.86-0.961 2.091-2.034 4.181-2.712 6.442-1.13 4.181-1.752 8.419-1.752 12.94v62.891c4.181 5.312 8.645 11.132 13.335 17.743 23.111 32.547 41.532 68.824 55.037 107.983 26.275 11.979 43.397 37.972 43.397 67.242v74.588c0 17.912-6.724 35.26-18.647 48.821v99.055c0.509 4.69 1.526 19.834-1.526 39.837 24.015 9.38 50.742 14.239 79.843 14.409 183.249-1.413 189.86-182.627 190.029-190.255 2.882-141.208 88.319-277.896 125.104-330.107 3.164-4.577 4.068-10.115 2.656-15.426-0.904-2.995-3.39-8.532-10.002-11.471-31.304-13.448-73.797-9.606-75.887-9.549h-128.155c-11.979 0-22.941-6.046-29.327-16.274-6.216-10.058-6.781-22.489-1.526-33.169 5.877-11.753 16.161-27.462 32.999-35.881l181.497-78.543c38.481-19.495 62.326-58.371 62.326-101.541v-31.53z" />
<glyph unicode="&#xe906;" glyph-name="svg-08" horiz-adv-x="757" d="M756.172 330.314l-5.074 10.331-167.901 269.337c-2.788 4.388-7.405 11.748-12.434 11.748h-61.712l137.274 132.84c2.88 2.88 4.434 4.251 4.434 8.137s-1.554 6.445-4.388 9.28l-184.403 183.946c-2.788 2.743-6.628 4.068-10.56 4.068-3.84 0-7.68-1.737-10.468-4.48l-326.523-326.66c-2.834-2.834-4.343-6.583-4.343-10.514 0-3.977 1.554-7.725 4.343-10.514l37.347-39.495-151.765-241.681v-370.452c0-8.137 10.925-20.205 19.108-20.205h722.573c8.137 0 14.765 9.371 14.765 17.508l0.457 373.195c-0.137-0.457-0.503 1.92-0.731 3.611zM447.614 907.385l150.485-149.525-284.742-309.883-159.079 167.993 293.335 291.416zM685.684-18.288h-639.971v319.986h639.971v-319.986zM55.22 347.41l120.177 179.329 127.446-133.617h5.714l170.507 182.849h83.425l144.131-228.561h-651.399z" />
<glyph unicode="&#xe907;" glyph-name="svg-09" horiz-adv-x="1031" d="M1003.432 30.936h-874.386l110.327 122.806c9.706-5.177 20.753-8.042 32.493-8.042 26.946 0 50.287 15.437 61.842 37.9l112.73-28.471c2.958-35.589 32.909-63.645 69.237-63.645 38.316 0 69.468 31.198 69.468 69.515 0 21.169-9.475 40.119-24.404 52.875l91.931 219.729 65.493-166.992c-15.669-12.71-25.698-32.123-25.698-53.892 0-38.316 31.198-69.468 69.468-69.468 38.362 0 69.515 31.152 69.515 69.468 0 7.811-1.294 15.391-3.744 22.417l80.284 80.33c7.904 7.857 7.904 20.706 0 28.61s-20.706 7.904-28.61 0l-75.754-75.754c-11.601 8.736-26.068 13.958-41.736 13.958-2.126 0-4.252-0.092-6.332-0.277l-80.515 205.262 80.885 193.291c1.941-0.185 3.975-0.277 5.962-0.277 32.215 0 59.346 21.954 67.25 51.72h127.382c11.185 0 20.244 9.059 20.244 20.244 0 11.139-9.059 20.244-20.244 20.244h-128.953c-9.429 27.177-35.312 46.774-65.678 46.774-38.316 0-69.468-31.152-69.468-69.468 0-21.862 10.168-41.413 25.929-54.123l-64.523-154.282-94.335 240.435c14.189 12.71 23.11 31.152 23.11 51.72 0 38.316-31.152 69.468-69.468 69.468s-69.422-31.152-69.422-69.468c0-16.593 5.824-31.799 15.576-43.77l-166.854-252.822c-7.21 2.588-14.975 3.975-23.11 3.975-8.273 0-16.269-1.479-23.618-4.16l-143.328 188.577v206.741c0 11.139-9.059 20.244-20.244 20.244s-20.244-9.105-20.244-20.244v-199.023h-33.972c-11.185 0-20.244-9.105-20.244-20.244 0-11.185 9.059-20.244 20.244-20.244h33.925v-203.413h-33.925c-11.185 0-20.244-9.059-20.244-20.244s9.059-20.244 20.244-20.244h33.925v-208.313h-33.925c-11.185 0-20.244-9.059-20.244-20.244 0-11.139 9.059-20.244 20.244-20.244h33.925v-189.131c0-11.185 9.059-20.244 20.244-20.244h174.434v-26.53c0-11.185 9.013-20.244 20.244-20.244 11.185 0 20.244 9.059 20.244 20.244v26.53h203.367v-26.53c0-11.185 9.059-20.244 20.244-20.244s20.244 9.059 20.244 20.244v26.53h208.313v-26.53c0-11.185 9.059-20.244 20.244-20.244 11.139 0 20.244 9.059 20.244 20.244v26.53h213.767c11.185 0 20.244 9.059 20.244 20.244s-9.059 20.198-20.244 20.198zM762.026 241.744c16.038 0 29.026-13.034 29.026-29.026s-13.034-29.026-29.026-29.026c-15.992 0-28.98 13.034-28.98 29.026-0.046 16.038 12.988 29.026 28.98 29.026zM762.026 778.818c16.038 0 29.026-13.034 29.026-29.026 0-16.038-13.034-29.026-29.026-29.026s-28.98 13.034-28.98 29.026c-0.046 15.992 12.988 29.026 28.98 29.026zM271.865 186.188c-16.084 0-29.026 13.034-29.026 29.026s12.988 29.026 29.026 29.026c15.992 0 28.98-13.034 28.98-29.026s-12.988-29.026-28.98-29.026zM515.721 131.972c-15.992 0-29.026 13.034-29.026 29.026 0 16.038 13.034 29.026 29.026 29.026s29.026-12.988 29.026-29.026c0-15.992-13.080-29.026-29.026-29.026zM513.225 862.569c15.992 0 29.026-13.034 29.026-29.026s-13.034-29.026-29.026-29.026-29.026 13.080-29.026 29.026c0 15.992 13.034 29.026 29.026 29.026zM269.323 500.436c16.038 0 29.072-13.034 29.072-28.98 0-15.992-13.034-29.026-29.072-29.026-15.992 0-29.026 13.034-29.026 29.026 0 15.946 13.034 28.98 29.026 28.98zM102.377 658.462l110.928-146.008c-8.458-11.509-13.45-25.698-13.45-41.043 0-38.316 31.152-69.515 69.468-69.515 38.362 0 69.515 31.198 69.515 69.515 0 15.53-5.13 29.904-13.774 41.459l167.732 254.163c6.425-1.941 13.358-3.051 20.429-3.051 3.235 0 6.471 0.277 9.614 0.693l108.617-276.995-107.831-257.675c-2.635 0.324-5.269 0.508-7.95 0.508-26.114 0-48.854-14.467-60.733-35.774l-114.163 28.841c-4.16 34.434-33.509 61.149-69.006 61.149-38.362 0-69.515-31.198-69.515-69.515 0-11.878 3.004-23.11 8.32-32.909l-108.247-120.449v596.605z" />
<glyph unicode="&#xe908;" glyph-name="svg-10" horiz-adv-x="1369" d="M684.729-63.963c-85.114 0-170.173-0.111-255.231 0.074-62.219 0.111-85.151 22.006-86.133 84.67-0.945 63.979-0.722 128.014 0 192.012 0.537 51.365 19.783 95.024 60.256 127.329 23.913 19.153 49.642 36.176 75.297 53.050 25.173 16.615 51.031 15.522 74.037-4.205 26.359-22.635 51.532-46.716 77.112-70.221 2.389-2.186 4.242-4.927 6.391-7.354 40.288-44.845 56.422-44.215 97.562-0.611 24.414 25.858 51.031 49.642 77.39 73.556 25.006 22.691 52.421 27.433 81.965 7.854 21.524-14.3 44.289-27.081 64.498-43.029 47.623-37.417 70.722-86.837 69.703-147.926-0.945-59.126 0-118.326-0.222-177.452-0.408-66.258-21.82-87.67-87.374-87.689-85.059-0.111-170.136-0.056-255.25-0.056zM896.82 718.383c3.594-84.299-21.172-158.299-83.354-216.999-80.928-76.316-192.16-71.592-267.586 10.706-47.938 52.291-72.426 114.27-72.963 185.343-0.333 42.863-1.482 85.54 14.281 127.014 35.472 93.598 128.773 147.963 231.225 133.145 97.099-14.041 172.155-95.061 178.304-193.049 0.926-15.337 0.093-30.786 0.093-46.16zM258.788-21.823c-27.47 0-53.088-0.259-78.816 0.074-40.418 0.463-80.928-0.074-121.16 2.593-29.896 1.945-48.735 17.338-52.198 45.252-7.557 60.163-11.651 120.994 4.779 180.416 12.892 46.678 43.641 80.168 84.873 104.804 25.303 15.133 51.272 13.003 73.278-2.556 29.452-20.857 56.014-45.901 83.262-69.777 3.649-3.167 5.724-9.928 5.779-15.041 0.333-80.798 0.204-161.596 0.204-245.766zM1111.726-21.285c0 83.947-0.148 164.801 0.278 245.636 0 5.057 2.334 11.707 5.964 14.93 26.636 23.395 52.421 48.105 81.243 68.499 27.618 19.542 57.144 17.115 85.744-2.945 53.606-37.472 81.687-88.374 83.503-153.409 0.982-33.138 1.037-66.387-0.148-99.507-1.667-48.772-21.079-70.87-69.092-72.648-61.256-2.223-122.661-0.556-187.492-0.556zM386.061 569.623c8.632-67.647-20.95-121.531-89.374-154.15-25.080-11.91-49.846-12.448-74.76-0.408-57.959 28.063-93.746 70.74-91.264 138.739 0.945 26.673-0.778 53.662 2.278 80.076 7.872 67.554 63.757 115.122 129.903 112.788 67.387-2.408 119.808-54.736 123.105-123.365 0.741-15.393 0.111-30.804 0.111-53.68zM982.767 580.385c1.908 20.913 2.167 42.103 6.076 62.627 12.077 62.923 65.924 105.749 128.088 103.637 63.535-2.186 113.918-46.808 120.716-111.324 3.779-36.009 4.501-72.963 0.963-108.916-5.779-58.83-56.57-109.509-115.251-118.993-11.355-1.852-24.358-0.093-35.472 3.501-64.961 21.061-102.952 74.093-103.489 142.573-0.093 8.891 0 17.819 0 26.748-0.537 0.056-1.037 0.111-1.63 0.148z" />
<glyph unicode="&#xe909;" glyph-name="svg-11" horiz-adv-x="788" d="M393.627-63.836c-102.044 0-204.019 0.096-306.063-0.068-21.823-0.068-42.554 3.125-59.681 17.619-18.711 15.859-27.473 36.453-27.473 60.992 0.136 92.9-1.324 185.854 0.532 278.7 1.897 96.012 62.547 158.518 163.172 172.589 19.216 2.689 38.623 4.463 57.484 8.762 19.707 4.545 28.769-3.439 35.143-21.181 36.439-101.525 73.466-202.846 110.505-304.152 5.104-13.825 7.424-31.813 27.432-31.54 18.82 0.273 21.331 17.387 26.204 30.735 36.876 100.734 73.479 201.535 110.205 302.324 9.349 25.74 11.137 26.777 38.309 22.792 19.202-2.839 38.364-6.988 57.634-8.298 84.138-5.65 160.197-78.174 160.688-178.293 0.437-91.098 0.833-182.169-0.136-273.24-0.491-47.781-32.359-77.055-82.487-77.614-57.675-0.6-115.364-0.123-173.080-0.136-46.102 0.014-92.272 0.014-138.388 0.014zM394.159 555.919c-111.379 0.027-201.945 91.057-202.013 203.078-0.136 110.096 91.358 201.071 202.109 201.003 110.806-0.068 201.904-90.73 201.972-201.085 0.123-111.788-90.703-203.050-202.068-202.996zM394.118 489.428c9.704 0 19.448 0.942 28.988-0.191 19.939-2.388 28.414-19.339 19.407-37.313-0.273-0.519-0.532-1.105-0.983-1.515-33.846-31.117-27.022-70.681-18.356-107.803 9.799-41.353-6.496-75.731-20.403-111.502-1.337-3.385-7.029-8.393-8.38-7.766-3.849 1.774-7.356 5.65-9.444 9.54-22.191 41.557-27.882 85.366-16.95 131.291 0.532 2.334 0.737 4.804 1.324 7.138 6.496 25.494 2.921 48.286-15.299 68.743-8.68 9.731-16.882 21.318-9.144 36.166 8.093 15.586 22.792 13.498 36.535 13.893 4.217 0.123 8.516 0.027 12.733 0.027-0.027-0.259-0.027-0.505-0.027-0.71z" />
<glyph unicode="&#xe90a;" glyph-name="svg-12" horiz-adv-x="1268" d="M356.314-72.146c-119.947 0-239.292 0-360.499 0 0 9.405 0 17.537 0 25.697 0 147.547-0.042 295.095 0.028 442.642 0.014 105.727 68.651 178.017 171.761 180.984 102.354 2.953 184.665-72.626 189.242-174.784 1.4-31.449 0.21-63.039 0.21-97.735 10.791 0 19.539 0 28.272 0 136.98-0.028 274.031 0.364 411.039-0.252 55.173-0.238 90.807-51.534 71.030-101.192-12.443-31.295-37.706-47.797-70.219-47.937-147.547-0.7-295.081 0.042-442.656 0.336-21.722 0.028-38.559 9.517-53.031 25.557-43.892 48.609-88.19 96.825-132.627 144.93-6.998 7.572-14.164 21.932-26.299 9.643-3.093-3.149 2.239-19.245 7.908-25.655 41.373-46.803 84.551-92.011 125.727-138.982 21.47-24.451 46.131-40.071 80.1-40.575 0.014-67.979 0.014-134.671 0.014-202.678zM340.022 577.723c-101.962 0.070-187.464 85.181-187.128 186.331 0.294 105.223 82.451 187.674 187.1 187.8 103.809 0.154 186.961-82.969 187.772-187.744 0.812-99.835-86.412-186.443-187.744-186.387zM1187.405 42.217c0-29.546 0-57.104 0-85.838-7.698-0.462-14.29-1.162-20.854-1.162-248.278-0.028-496.569-0.084-744.889 0-34.612 0.014-45.879 11.785-45.376 46.159 0.42 29.546 11.435 42.422 40.365 42.436 253.554 0.308 507.122 0.154 760.691 0.028 2.911 0 5.808-0.896 10.063-1.624zM816.325 68.138c-83.613 0-167.198-0.014-250.811 0.056-7.502 0-15.242-0.448-22.478 1.12-16.739 3.597-26.677 14.724-26.607 31.771 0.14 16.767 9.167 28.58 26.411 31.645 8.832 1.582 17.999 1.666 26.985 1.666 153.65 0.098 307.299 0.49 460.921-0.406 20.504-0.112 29.966 5.137 36.726 25.543 41.373 124.846 84.425 249.131 126.987 373.585 11.575 33.857 26.313 45.152 48.231 37.3 21.414-7.642 26.467-26.943 15.452-59.092-45.991-134.419-91.927-268.824-137.918-403.229-12.023-35.060-18.741-39.917-55.341-39.917-82.871-0.056-165.714-0.042-248.558-0.042z" />
<glyph unicode="&#xe90b;" glyph-name="svg-13" horiz-adv-x="647" d="M629.775-69.295c-216.026 0-431.027 0-647 0 0 119.693 0 238.335 0 357.936 216.026 0 431.040 0 647 0 0-119.627 0-238.283 0-357.936zM343.799 954.718c71.395-71.487 143.671-143.829 214.554-214.791-96.162-96.28-193.348-193.532-289.628-289.917-70.607 70.568-143.198 143.172-214.856 214.804 96.162 96.162 193.427 193.414 289.931 289.904zM306.866 439.604c29.917 30.495 56.956 58.441 84.6 85.769 3.272 3.245 9.88 4.283 14.991 4.388 24.412 0.434 48.863 0.828 73.209-0.263 6.004-0.25 14.19-4.467 17.251-9.434 39.731-64.274 78.727-129.022 117.854-193.677 0.867-1.432 1.025-3.324 1.918-6.359-207.105 0-413.447 0-621.353 0 2.431 4.953 4.112 9.315 6.53 13.283 36.946 60.99 73.931 121.94 111.008 182.877 11.22 18.447 23.584 19.787 39.232 4.139 32.833-32.755 65.141-66.035 98.632-98.080 6.635-6.346 17.566-11.102 26.698-11.404 37.182-1.274 74.43-0.381 111.652-0.618 10.274-0.066 19.603 2.26 19.826 13.704 0.236 12.258-9.131 15.793-20.26 15.701-26.159-0.145-52.292-0.026-81.788-0.026z" />
<glyph unicode="&#xe90c;" glyph-name="svg-14" horiz-adv-x="781" d="M628.101 805.56c-67.584 26.857-135.386-10.056-204.287 8.645 0-15.702-1.262-31.282 0.719-46.427 0.665-5.089 8.821-10.396 14.63-13.422 108.366-56.375 216.867-112.397 325.315-168.513 3.827-1.954 7.586-3.868 11.264-6.012 14.901-8.631 21.375-21.524 17.534-38.339-3.759-16.598-16.543-24.062-32.15-24.754-24.767-1.086-49.603-0.285-76.555-0.285 0-160.411 0-318.923 0-478.656-38.284 0-74.452 0-112.397 0 0 136.187 0 271.627 0 408.289-37.416 0-73.067 0-110.944 0 0-135.78 0-271.682 0-408.398-38.474 0-74.642 0-112.654 0 0 136.567 0 271.98 0 408.479-37.361 0-72.932 0-110.157 0 0-135.725 0-271.152 0-408.099-38.203 0-74.831 0-113.496 0 0 159.176 0 317.634 0 478.018-17.073 0-32.123 0-47.187 0-7.301 0-14.616-0.109-21.931 0.027-22.392 0.394-37.809 9.853-41.636 25.46-4.275 17.303 3.108 29.653 25.161 41.107 56.076 29.124 112.207 58.112 168.323 87.168 55.085 28.472 110.008 57.175 165.229 85.213 10.016 5.062 13.897 10.979 13.775 22.365-0.624 52.928-0.271 105.896-0.271 158.824 0 10.721-0.136 21.51 14.263 23.193 13.815 1.588 21.578-3.474 23.75-18.375 0.638-4.356 8.713-10.748 13.503-10.884 26.559-0.665 53.172 0.719 79.785 0.611 32.014-0.136 64.11-0.746 96.125-1.859 10.599-0.366 14.928-6.501 14.616-18.104-0.841-33.969-0.326-68.005-0.326-105.272zM14.372-64.299c24.55 22.61 46.088 43.102 68.494 62.55 4.37 3.786 12.092 5.198 18.321 5.211 202.577 0.258 405.127 0.258 607.704-0.014 6.188 0 13.965-1.493 18.253-5.361 21.673-19.461 42.356-39.899 65.875-62.4-260.295 0.014-517.103 0.014-778.647 0.014z" />
<glyph unicode="&#xe90d;" glyph-name="svg-15" horiz-adv-x="1117" d="M680.391 51.393c0-21.826-0.931-43.696 0.296-65.477 0.754-13.683-4.596-19.845-16.861-24.722-66.807-26.776-136.731-35.613-207.838-34.031-70.989 1.566-140.426 14.644-208.562 34.918-12.043 3.546-16.861 8.6-16.565 21.737 0.931 38.361 0.281 76.722 0.355 115.098 0.133 95.119 62.226 166.965 156.665 174.767 49.784 4.108 100.705 3.177 150.43-1.951 79.84-8.231 141.386-80.845 142.022-160.818 0.133-19.816 0.059-39.676 0.059-59.522zM199.711 64.87c-67.782 4.019-130.333 16.92-191.672 36.425-3.31 1.049-7.684 6.118-7.61 9.236 1.005 56.832-2.867 114.433 5.453 170.231 10.536 70.663 74.89 124.141 147.193 129.151 45.912 3.177 92.282 0.576 139.746 0.576 2.778-43.548 19.077-80.239 49.207-111.876-107.31-41.361-148.848-122.058-142.317-233.742zM787.746 431.457c28.15 29.51 44.227 61.886 48.321 100.217 0.502 4.596 8.571 11.94 13.166 11.969 40.962 0.236 82.19 1.758 122.841-2.187 76.249-7.388 139.554-75.318 143.898-153.577 2.512-46.178 1.212-92.593 0.355-138.859-0.074-5.674-6.901-13.491-12.62-16.417-39.455-20.141-125.102-37.002-173.748-34.711 8.039 109.808-33.278 191.229-142.214 233.565zM711.6 64.441c8.822 112.601-33.869 191.746-138.298 233.269 10.817 17.511 23.732 34.327 32.066 53.182 8.113 18.412 11.467 38.908 16.491 56.95 46.237 0 93.76 5.216 139.672-1.153 79.042-10.935 134.929-79.086 137.071-158.838 1.212-42.986 0.754-86.017-0.118-129.003-0.103-6.162-5.261-15.368-10.506-17.806-54.793-25.416-113.103-34.416-176.378-36.603zM448.91 664.815c-79.766 0.236-142.716 64.457-142.169 145.021 0.458 76.811 65.344 140.958 142.819 141.15 78.983 0.148 143.691-65.329 143.041-144.77-0.724-79.16-64.206-141.623-143.691-141.401zM325.093 417.094c0.222 73.131 58.251 130.244 132.003 129.89 72.954-0.355 131.353-58.857 131.205-131.441-0.222-72.082-59.802-131.648-131.737-131.619-73.427 0-131.619 58.96-131.471 133.17zM93.39 552.761c0.355 71.373 56.315 128.737 127.481 130.688 71.801 1.995 131.766-52.636 135.579-124.703 0.384-7.093-4.315-16.388-9.605-21.56-23.392-22.712-40.829-48.971-47.996-80.638-3.088-13.506-9.827-20.348-21.486-25.372-87.48-37.844-184.461 26.185-183.973 121.585zM684.277 683.478c47.124-2.423 88.662-28.002 111.049-79.574 22.092-50.907 13.403-99.434-23.392-140.174-36.337-40.134-82.707-52.148-135.431-37.667-11.881 3.266-18.501 8.467-20.836 22.21-6.857 40.105-28.298 72.452-60.719 96.523-10.462 7.714-11.984 15.383-10.61 26.672 7.521 62.95 65.403 112.63 139.938 112.009zM887.136 553.515c-2.024 0.148-8.689 0.148-15.206 1.005-21.175 2.852-36.942 8.704-41.331 35.228-6.162 37.075-28.549 66.541-59.034 88.588-9.605 6.945-11.541 13.876-9.974 24.766 9.974 69.274 72.969 119.487 142.258 112.955 70.944-6.679 123.018-66.925 119.649-138.401-3.266-69.939-60.896-124.23-136.362-124.141zM543.408 651.708c-10.152-28.845-19.181-54.63-29.007-82.411-42.898 14.836-87.155 14.215-128.619-6.295-9.605 29.332-19.077 58.088-29.052 88.706 61.265 0 123.875 0 186.678 0z" />
<glyph unicode="&#xe90e;" horiz-adv-x="1285" d="M190.564 866.312l-116.428-131.819-43.678 44.463-16.408-16.177 61.056-62.119 132.79 150.399z" />
<glyph unicode="&#xe90f;" horiz-adv-x="1285" d="M95.398 557.241c-52.598 0-95.398-43.539-95.398-97.015 0-53.523 42.8-97.108 95.398-97.108 52.644 0 95.49 43.539 95.49 97.108 0.046 53.476-42.8 97.015-95.49 97.015zM95.398 386.227c-39.934 0-72.38 33.186-72.38 73.998s32.446 73.998 72.38 73.998c39.934 0 72.426-33.186 72.426-73.998s-32.446-73.998-72.426-73.998z" />
<glyph unicode="&#xe910;" horiz-adv-x="1285" d="M95.398 238.647c-52.598 0-95.398-43.539-95.398-97.062s42.8-97.108 95.398-97.108c52.644 0 95.49 43.539 95.49 97.108 0.046 53.523-42.8 97.062-95.49 97.062zM95.398 67.542c-39.934 0-72.38 33.232-72.38 74.044 0 40.766 32.446 73.952 72.38 73.952s72.426-33.14 72.426-73.952c0-40.812-32.446-74.044-72.426-74.044z" />
<glyph unicode="&#xe911;" horiz-adv-x="1285" d="M314.757 904.536h462.198v-46.22h-462.198v46.22z" />
<glyph unicode="&#xe912;" horiz-adv-x="1285" d="M314.757 765.877h878.176v-46.22h-878.176v46.22z" />
<glyph unicode="&#xe913;" horiz-adv-x="1285" d="M314.757 580.998h462.198v-46.22h-462.198v46.22z" />
<glyph unicode="&#xe914;" horiz-adv-x="1285" d="M314.757 442.338h878.176v-46.22h-878.176v46.22z" />
<glyph unicode="&#xe915;" horiz-adv-x="1285" d="M314.757 257.459h462.198v-46.22h-462.198v46.22z" />
<glyph unicode="&#xe916;" horiz-adv-x="1285" d="M314.757 118.799h878.176v-46.22h-878.176v46.22z" />
<glyph unicode="&#xe917;" glyph-name="svg-17" horiz-adv-x="1010" d="M972.884 408.336c0.502 24.242 0.502 50.155 0 79.329-0.376 26.039-14.461 43.719-39.664 49.863-12.163 2.968-23.991 5.642-35.694 6.228-16.718 0.878-39.581 5.684-45.056 36.822-1.421 8.192-5.977 16.384-10.24 23.322-6.938 11.368-2.675 19.56 2.424 26.122 8.903 11.577 18.181 24.492 29.090 40.584 16.175 23.865 15.13 46.184-3.093 66.288-18.599 20.522-38.536 40.417-59.308 59.183-19.728 17.68-42.214 18.975-65.076 3.762-5.935-3.929-11.661-8.15-17.387-12.372-8.108-5.977-16.509-12.121-25.328-17.429-6.060-3.636-16.509-4.598-24.074-2.215-7.607 2.341-14.921 5.517-22.026 8.526-6.604 2.8-13.375 5.726-20.187 7.899-11.118 3.511-16.551 10.282-18.223 22.57-2.8 20.773-5.851 37.867-9.571 53.75-4.848 20.647-21.358 35.15-42.088 36.948-18.683 1.588-37.784 0.585-56.508 1.463-54.627 2.759-79.579-3.803-85.849-73.394-1.923-21.525-8.192-44.262-40.040-49.612-3.553-0.627-7.231-2.633-11.16-4.765-3.762-2.048-7.607-4.138-11.912-5.35-6.98-1.881-15.966-1.087-21.065 2.090-8.61 5.475-16.927 11.536-24.952 17.387-6.687 4.89-13.375 9.78-20.271 14.336-19.811 13.082-43.008 12.873-58.514-0.878-23.406-20.773-46.101-43.259-67.5-66.915-14.42-15.924-15.464-38.327-2.717-58.472l1.672-2.633c6.478-10.282 13.208-20.898 21.274-29.592 16.050-17.304 17.68-34.314 5.099-53.499-4.639-7.022-7.189-15.757-9.864-25.579-2.675-10.282-8.861-15.506-19.978-17.011-16.384-2.173-33.437-5.057-50.824-8.526-26.331-5.266-42.381-24.242-42.924-50.782-0.502-27.167-0.502-53.875 0.042-79.329 0.543-26.875 16.091-45.349 42.715-50.74l6.019-1.212c13.542-2.759 27.585-5.601 41.336-6.938 15.047-1.379 22.862-7.774 26.958-22.068 1.672-5.851 4.681-12.037 7.607-18.014 5.266-10.825 10.742-21.985 9.237-33.102-1.588-11.494-9.947-21.316-18.014-30.762-4.221-4.932-8.61-10.031-11.745-15.172-4.765-7.69-8.568-16.217-12.622-25.245-1.546-3.469-3.135-7.022-4.807-10.658 1.755-3.72 3.344-7.481 4.89-11.16 3.72-8.819 7.231-17.178 12.581-23.322 18.725-21.525 39.414-41.169 59.016-59.476 17.847-16.677 42.632-18.474 63.739-4.765l2.424 1.588c10.24 6.646 20.814 13.542 29.884 21.608 9.738 8.694 18.516 12.706 27.627 12.706 7.022 0 14.085-2.424 21.567-7.398 4.347-2.926 9.738-4.723 15.423-6.604 4.639-1.546 9.404-3.135 13.918-5.433 5.141-2.675 11.118-8.903 12.664-15.673 2.424-10.867 4.263-21.985 6.019-32.726 1.17-7.231 2.382-14.461 3.72-21.65 4.765-25.078 21.985-40.793 46.101-42.005 29.717-1.546 59.643-1.546 88.607-0.042 24.325 1.212 41.253 16.468 46.477 41.796l1.296 6.186c2.090 9.78 4.263 19.895 4.723 29.717 0.836 16.384 5.266 35.861 32.643 40.876 8.359 1.546 16.886 6.269 24.91 10.992 10.282 6.019 18.808 5.35 29.048-2.717 12.204-9.571 25.913-19.352 41.88-29.884 21.107-13.918 45.641-12.163 63.697 4.598 20.438 18.975 40.417 38.954 59.35 59.35 17.22 18.557 18.975 41.796 4.807 63.697-7.941 12.33-15.841 24.325-24.994 35.109-9.237 10.909-16.927 24.576-4.138 43.259 5.433 7.858 8.485 17.93 11.368 28.379 3.344 12.037 10.574 18.139 23.531 19.769 19.352 2.424 36.404 5.392 52.078 9.153 24.91 6.019 39.455 24.158 39.957 49.863zM932.216 415.441c0.209-11.703-4.556-17.387-15.966-18.934-13.458-1.881-26.875-4.263-40.291-6.646-9.446-1.714-18.85-3.385-28.296-4.89-10.7-1.672-16.844-7.022-21.191-18.516-8.61-22.779-18.516-46.602-31.18-74.856-5.224-11.661-4.598-20.522 2.048-29.633 11.034-15.088 21.776-30.386 32.81-46.059l16.468-23.28-17.095-17.178c-14.754-14.838-28.672-28.881-43.426-42.59-4.263-4.054-15.757-3.344-21.4 0.418-18.516 12.163-36.864 25.161-54.585 38.578-10.574 7.983-19.435 8.694-32.183 2.759-22.152-10.365-46.184-20.271-73.519-30.386-11.954-4.389-17.889-11.577-19.811-24.116-1.254-7.899-2.591-15.799-3.887-23.698-2.257-13.375-4.514-32.141-6.311-45.558-1.755-12.915-8.276-24.325-20.605-24.325h-1.63c-19.853 0-39.79 0-59.601 0h-1.923c-15.966 0-19.477 16.175-20.731 25.621-1.588 11.786-3.553 26.206-5.559 37.951-1.546 9.028-3.051 19.352-4.389 28.379-1.923 13.166-8.443 21.065-22.444 25.746-23.448 7.774-45.808 17.22-66.497 27.46-14.545 7.147-24.325 6.646-36.362-2.55-13.793-10.491-27.961-20.355-43.008-30.845-6.646-4.639-13.416-9.32-20.438-14.294l-3.636-2.55-17.304 17.596c-14.252 14.461-27.752 28.087-40.835 42.548-4.598 5.099-4.096 16.802-0.46 22.486 11.619 17.805 24.283 35.652 38.745 54.544 7.69 10.156 8.276 19.143 2.048 32.099-12.748 26.666-22.152 49.068-29.633 70.51-4.848 13.918-12.706 20.522-27.126 22.653-7.774 1.17-15.506 2.591-23.28 3.971-12.204 2.173-24.869 4.472-37.324 5.768-14.921 1.588-21.023 8.819-20.355 24.2 0.92 22.235 0.878 40.626-0.084 57.887-1.003 17.471 9.529 21.316 19.978 22.737 11.327 1.546 22.612 3.469 33.896 5.308 9.488 1.588 18.975 3.176 28.505 4.556 12.581 1.881 19.644 8.067 24.283 21.358 8.15 23.406 18.098 47.731 29.508 72.265 5.642 12.121 5.016 21.065-2.257 30.804-13.124 17.68-26.875 36.613-39.539 56.048-3.385 5.141-4.89 17.136 0 22.486 12.999 14.503 26.499 28.17 40.751 42.632l17.387 17.68 3.636-2.591c6.855-4.848 13.584-9.529 20.187-14.127 15.047-10.491 29.215-20.396 43.133-31.013 11.828-9.028 21.358-9.571 36.321-2.090 23.74 11.87 48.191 21.316 69.047 28.965 13.249 4.932 19.101 11.327 20.814 22.862 1.672 11.494 3.762 22.904 5.851 34.314s4.18 22.862 5.851 34.356c1.672 11.118 7.523 16.259 18.516 16.259 22.528-0.251 43.677-0.293 65.327 0.042 0 0 0 0 0 0 11.536 0 17.429-5.183 19.017-16.217 1.672-11.16 3.636-22.277 5.601-33.395 1.964-11.243 3.971-22.444 5.642-33.688 1.797-12.037 7.69-18.808 20.271-23.448 27.711-10.24 52.245-20.271 75.065-30.762 12.539-5.851 20.898-5.183 30.762 2.257 19.644 14.838 37.909 27.836 55.756 39.664 2.675 1.797 6.896 2.842 11.243 2.842 3.051 0 7.231-0.543 9.989-3.051 14.712-13.667 28.588-27.585 43.259-42.339l17.011-17.053-15.924-22.486c-11.034-15.632-21.692-30.762-32.684-45.683-7.356-10.031-8.108-18.975-2.55-30.887 11.201-24.158 21.525-48.859 30.636-73.435 4.681-12.539 10.783-18.098 21.817-19.769 10.407-1.588 20.773-3.469 31.138-5.35 11.954-2.173 23.907-4.347 35.903-6.060 12.372-1.755 17.471-7.607 17.136-19.602-0.669-23.656-0.376-46.979-0.042-64.658zM529.429 251.81l-3.218 5.183c51.158 0.125 97.301 20.020 133.454 56.048 36.112 35.986 54.962 83.717 54.836 134.332-0.293 106.12-86.476 192.596-191.551 192.805-51.493 0-99.809-19.978-135.962-56.257-36.195-36.279-52.37-84.428-52.245-135.586 0.293-107.332 69.298-191.384 194.685-191.384v-5.141zM371.942 454.478c-0.711 81.711 66.038 157.236 148.752 157.236h2.466c82.004 0 148.961-74.48 149.253-157.989 0.293-82.171-66.957-149.379-149.88-149.88-84.052 0-149.838 66.163-150.591 150.632z" />
</font>
</defs>
</svg>
